<svg width="26" height="26" viewBox="0 0 26 26" fill="none" xmlns="http://www.w3.org/2000/svg">
<g clip-path="url(#clip0_6_116)">
<path d="M13 7.04167C17.1058 7.04167 20.7675 9.34917 22.555 13C20.7675 16.6508 17.1167 18.9583 13 18.9583C8.88334 18.9583 5.2325 16.6508 3.445 13C5.2325 9.34917 8.89417 7.04167 13 7.04167ZM13 4.875C7.58334 4.875 2.9575 8.24417 1.08334 13C2.9575 17.7558 7.58334 21.125 13 21.125C18.4167 21.125 23.0425 17.7558 24.9167 13C23.0425 8.24417 18.4167 4.875 13 4.875ZM13 10.2917C14.495 10.2917 15.7083 11.505 15.7083 13C15.7083 14.495 14.495 15.7083 13 15.7083C11.505 15.7083 10.2917 14.495 10.2917 13C10.2917 11.505 11.505 10.2917 13 10.2917ZM13 8.125C10.3133 8.125 8.125 10.3133 8.125 13C8.125 15.6867 10.3133 17.875 13 17.875C15.6867 17.875 17.875 15.6867 17.875 13C17.875 10.3133 15.6867 8.125 13 8.125Z" fill="#B7B7B7"/>
</g>
<defs>
<clipPath id="clip0_6_116">
<rect width="26" height="26" fill="white"/>
</clipPath>
</defs>
</svg>
